<?xml version="1.0" standalone="no"?>
<!DOCTYPE svg PUBLIC "-//W3C//DTD SVG 20010904//EN"
 "http://www.w3.org/TR/2001/REC-SVG-20010904/DTD/svg10.dtd">
<svg version="1.0" xmlns="http://www.w3.org/2000/svg"
 width="474.000000pt" height="267.000000pt" viewBox="0 0 474.000000 267.000000"
 preserveAspectRatio="xMidYMid meet">

<g transform="translate(0.000000,267.000000) scale(0.100000,-0.100000)"
fill="#ffffff" stroke="none">
<path d="M3690 2141 l0 -520 30 -3 29 -3 -50 -65 c-28 -36 -79 -96 -113 -135
-34 -38 -75 -88 -91 -110 -47 -66 -78 -96 -118 -116 -53 -28 -56 -11 -17 113
18 57 40 137 50 179 9 41 27 104 38 140 61 186 67 262 24 310 -36 41 -99 54
-140 29 -66 -41 -135 -161 -235 -416 -83 -207 -101 -280 -102 -399 0 -90 3
-106 28 -157 68 -139 220 -196 353 -134 138 64 266 176 355 308 46 69 78 108
90 108 4 0 10 -30 14 -68 12 -119 68 -212 151 -253 59 -28 158 -23 227 11 142
71 486 455 463 516 -5 13 -15 15 -51 10 -62 -8 -81 -19 -224 -131 -178 -138
-232 -161 -265 -113 -28 40 -21 157 15 276 l32 102 274 0 273 0 0 520 0 520
-520 0 -520 0 0 -519z m732 449 l238 0 0 -450 0 -450 -202 0 c-112 0 -213 3
-225 6 l-22 6 19 51 c11 28 35 67 54 86 57 61 106 131 106 155 0 15 -14 32
-43 53 -24 16 -51 46 -60 66 -36 74 -111 100 -161 55 -14 -13 -56 -81 -95
-151 -87 -159 -204 -317 -236 -317 l-22 0 -6 317 c-4 174 -7 377 -7 451 l0
135 212 -6 c116 -4 318 -7 450 -7z"/>
<path d="M2273 1921 c-114 -39 -223 -132 -376 -323 -137 -171 -236 -339 -407
-690 -46 -96 -82 -157 -103 -175 -18 -15 -86 -58 -152 -96 -131 -73 -229 -154
-260 -212 l-20 -37 24 -19 c31 -25 88 -25 179 2 40 12 75 20 77 17 3 -3 -4
-25 -15 -51 -59 -133 -17 -252 93 -264 42 -5 48 -3 92 38 35 33 60 71 100 154
29 60 61 132 71 159 26 71 67 106 211 179 70 36 157 81 192 101 115 66 106 91
106 -279 0 -286 2 -323 17 -352 24 -43 55 -63 101 -63 46 0 52 12 96 182 37
144 54 259 80 543 15 160 14 159 225 323 262 203 406 361 406 445 0 23 -4 27
-27 27 -54 0 -110 -22 -288 -111 -99 -49 -195 -92 -214 -96 l-34 -6 6 49 c43
330 32 486 -37 544 -29 24 -91 28 -143 11z m-58 -429 c10 -47 -13 -239 -34
-287 -13 -29 -35 -56 -64 -76 -69 -48 -225 -130 -231 -121 -8 14 51 130 118
232 35 52 89 137 120 188 32 50 63 92 71 92 7 0 16 -13 20 -28z"/>
<path d="M875 1809 c-66 -10 -119 -31 -246 -96 -130 -65 -210 -125 -310 -230
-138 -145 -240 -315 -284 -473 -23 -81 -26 -254 -6 -325 47 -167 151 -267 305
-296 72 -13 131 -5 261 33 197 58 298 127 558 378 100 96 127 134 107 154 -11
11 -74 -18 -213 -100 -202 -117 -467 -177 -554 -124 -18 10 -40 34 -49 51 -33
64 14 186 121 317 37 46 86 94 109 107 25 14 93 34 171 50 256 53 354 115 385
245 21 88 -6 167 -82 236 -69 64 -164 89 -273 73z"/>
</g>
</svg>
